<svg width="24" height="24" viewBox="0 0 24 24" fill="none" xmlns="http://www.w3.org/2000/svg">
<path d="M10.7684 17.5263H12.9613V11.9123H14.5403L14.7157 10.0702H12.9613C12.9613 10.0702 12.9613 9.36843 12.9613 9.01755C12.9613 8.57895 13.0491 8.40351 13.4877 8.40351C13.8385 8.40351 14.7157 8.40351 14.7157 8.40351V6.47369C14.7157 6.47369 13.4877 6.47369 13.1368 6.47369C11.4701 6.47369 10.7684 7.17544 10.7684 8.57895C10.7684 9.80702 10.7684 10.0702 10.7684 10.0702H9.62802V12H10.7684V17.5263Z" fill="#5C34F6"/>
<path fill-rule="evenodd" clip-rule="evenodd" d="M12.1719 20C16.5902 20 20.1719 16.4183 20.1719 12C20.1719 7.58172 16.5902 4 12.1719 4C7.7536 4 4.17188 7.58172 4.17188 12C4.17188 16.4183 7.7536 20 12.1719 20ZM12.1719 22C17.6947 22 22.1719 17.5228 22.1719 12C22.1719 6.47715 17.6947 2 12.1719 2C6.64903 2 2.17188 6.47715 2.17188 12C2.17188 17.5228 6.64903 22 12.1719 22Z" fill="#5C34F6"/>
</svg>
