<svg width="24" height="24" viewBox="0 0 24 24" fill="none" xmlns="http://www.w3.org/2000/svg">
<path d="M7.97188 2H16.3719C19.5719 2 22.1719 4.6 22.1719 7.8V16.2C22.1719 17.7383 21.5608 19.2135 20.4731 20.3012C19.3854 21.3889 17.9101 22 16.3719 22H7.97188C4.77188 22 2.17188 19.4 2.17188 16.2V7.8C2.17188 6.26174 2.78294 4.78649 3.87066 3.69878C4.95837 2.61107 6.43362 2 7.97188 2ZM7.77187 4C6.8171 4 5.90142 4.37928 5.22629 5.05442C4.55116 5.72955 4.17188 6.64522 4.17188 7.6V16.4C4.17188 18.39 5.78187 20 7.77187 20H16.5719C17.5267 20 18.4423 19.6207 19.1175 18.9456C19.7926 18.2705 20.1719 17.3548 20.1719 16.4V7.6C20.1719 5.61 18.5619 4 16.5719 4H7.77187ZM17.4219 5.5C17.7534 5.5 18.0713 5.6317 18.3058 5.86612C18.5402 6.10054 18.6719 6.41848 18.6719 6.75C18.6719 7.08152 18.5402 7.39946 18.3058 7.63388C18.0713 7.8683 17.7534 8 17.4219 8C17.0904 8 16.7724 7.8683 16.538 7.63388C16.3036 7.39946 16.1719 7.08152 16.1719 6.75C16.1719 6.41848 16.3036 6.10054 16.538 5.86612C16.7724 5.6317 17.0904 5.5 17.4219 5.5ZM12.1719 7C13.498 7 14.7697 7.52678 15.7074 8.46447C16.6451 9.40215 17.1719 10.6739 17.1719 12C17.1719 13.3261 16.6451 14.5979 15.7074 15.5355C14.7697 16.4732 13.498 17 12.1719 17C10.8458 17 9.57402 16.4732 8.63634 15.5355C7.69866 14.5979 7.17188 13.3261 7.17188 12C7.17188 10.6739 7.69866 9.40215 8.63634 8.46447C9.57402 7.52678 10.8458 7 12.1719 7ZM12.1719 9C11.3762 9 10.6132 9.31607 10.0506 9.87868C9.48795 10.4413 9.17188 11.2044 9.17188 12C9.17188 12.7956 9.48795 13.5587 10.0506 14.1213C10.6132 14.6839 11.3762 15 12.1719 15C12.9675 15 13.7306 14.6839 14.2932 14.1213C14.8558 13.5587 15.1719 12.7956 15.1719 12C15.1719 11.2044 14.8558 10.4413 14.2932 9.87868C13.7306 9.31607 12.9675 9 12.1719 9Z" fill="#5C34F6"/>
</svg>
