<svg width="24" height="24" viewBox="0 0 24 24" fill="none" xmlns="http://www.w3.org/2000/svg">
<path fill-rule="evenodd" clip-rule="evenodd" d="M21.2195 4.78049C20.8293 4.29268 20.2439 4 19.561 4H4.2439C3.65854 4 3.07317 4.29268 2.58537 4.78049C2.09756 5.26829 2 5.85366 2 6.53659V17.4634C2 18.1463 2.19512 18.7317 2.68293 19.2195C3.17073 19.7073 3.65854 20 4.34146 20H19.6585C20.2439 20 20.8293 19.7073 21.3171 19.2195C21.7073 18.7317 22 18.1463 22 17.4634V6.53659C21.9024 5.85366 21.7073 5.26829 21.2195 4.78049ZM12.3415 12.1951C12.2439 12.2927 12.1463 12.2927 12.0488 12.2927C11.9512 12.2927 11.8537 12.2927 11.7561 12.1951L4.53659 5.85366H19.7561L12.3415 12.1951ZM20.2439 17.3659C20.2439 17.561 20.1463 17.6585 20.0488 17.7561C19.9512 17.8537 19.8537 17.9512 19.6585 17.9512H4.34146C4.14634 17.9512 4.04878 17.8537 3.95122 17.7561C3.85366 17.6585 3.7561 17.4634 3.7561 17.3659V7.90244L10.5854 13.6585C11.3659 14.3415 12.5366 14.3415 13.3171 13.6585L20.1463 8L20.2439 17.1707V17.3659Z" fill="#5C34F6"/>
</svg>
