<svg width="24" height="24" viewBox="0 0 24 24" fill="none" xmlns="http://www.w3.org/2000/svg">
<path fill-rule="evenodd" clip-rule="evenodd" d="M13.0841 2.80437C13.1393 2.30809 13.5863 1.95048 14.0825 2.00561C16.1211 2.23207 18.0221 3.14496 19.4733 4.59439C20.9246 6.04381 21.8398 7.94362 22.0689 9.98188C22.1246 10.4781 21.7676 10.9255 21.2714 10.9813C20.7752 11.0371 20.3277 10.68 20.272 10.1838C20.0887 8.55319 19.3565 7.03334 18.1955 5.8738C17.0345 4.71426 15.5137 3.98395 13.8829 3.80278C13.3866 3.74764 13.029 3.30064 13.0841 2.80437ZM13.0953 6.34751C13.191 5.85742 13.6658 5.53764 14.1559 5.63326C15.2155 5.84001 16.1894 6.35827 16.9529 7.12172C17.7163 7.88516 18.2346 8.85906 18.4413 9.91875C18.537 10.4088 18.2172 10.8836 17.7271 10.9793C17.237 11.0749 16.7622 10.7551 16.6666 10.265C16.5287 9.55855 16.1832 8.90929 15.6743 8.40033C15.1653 7.89136 14.5161 7.54585 13.8096 7.40802C13.3195 7.3124 12.9997 6.83759 13.0953 6.34751Z" fill="#5C34F6"/>
<path fill-rule="evenodd" clip-rule="evenodd" d="M15.7569 13.8339L15.7695 13.8381C16.6048 14.114 17.5033 14.2645 18.4446 14.2645C19.1679 14.2645 19.8616 14.5518 20.3731 15.0633C20.8845 15.5747 21.1719 16.2684 21.1719 16.9917V20.1736C21.1719 20.8969 20.8845 21.5906 20.3731 22.102C19.8616 22.6135 19.1679 22.9008 18.4446 22.9008C13.8636 22.9008 9.47021 21.081 6.23094 17.8418C2.99168 14.6025 1.17188 10.2091 1.17188 5.62811C1.17188 4.90479 1.45921 4.2111 1.97067 3.69963C2.48214 3.18817 3.17583 2.90083 3.89915 2.90083H7.08097C7.80428 2.90083 8.49798 3.18817 9.00944 3.69963C9.5209 4.2111 9.80824 4.90479 9.80824 5.62811C9.80824 6.56943 9.95868 7.46786 10.2347 8.30323L10.2388 8.3158L10.2428 8.32842C10.5368 9.26409 10.3211 10.332 9.56661 11.0865L8.55349 12.0996C9.44616 13.4592 10.6135 14.6266 11.9731 15.5192L12.9862 14.5061C13.7407 13.7516 14.8086 13.5359 15.7443 13.8299L15.7569 13.8339ZM11.7581 17.5126C12.0873 17.6636 12.4782 17.5854 12.7386 17.325L14.2719 15.7917C14.5264 15.5372 14.881 15.4645 15.1991 15.5645C16.2173 15.9008 17.3082 16.0827 18.4446 16.0827C18.6857 16.0827 18.9169 16.1784 19.0874 16.3489C19.2579 16.5194 19.3537 16.7506 19.3537 16.9917V20.1736C19.3537 20.4147 19.2579 20.6459 19.0874 20.8164C18.9169 20.9869 18.6857 21.0827 18.4446 21.0827C15.7863 21.0827 13.1987 20.3978 10.9176 19.1258C10.875 19.1021 10.8325 19.0781 10.7901 19.054C9.99069 18.5982 9.2298 18.0698 8.51781 17.4731C8.17215 17.1834 7.83802 16.8776 7.51659 16.5561C7.19516 16.2347 6.88935 15.9006 6.59965 15.5549C6.00291 14.8429 5.47452 14.082 5.01875 13.2826C4.9946 13.2402 4.97065 13.1977 4.94691 13.1551C3.67491 10.874 2.99006 8.28636 2.99006 5.62811C2.99006 5.387 3.08584 5.15577 3.25632 4.98528C3.42681 4.8148 3.65804 4.71902 3.89915 4.71902H7.08097C7.32207 4.71902 7.5533 4.8148 7.72379 4.98528C7.89428 5.15577 7.99006 5.387 7.99006 5.62811C7.99006 6.76447 8.17188 7.85538 8.50824 8.87356C8.60824 9.19174 8.53551 9.54629 8.28097 9.80084L6.74774 11.3341C6.48732 11.5945 6.40909 11.9854 6.56006 12.3146C6.57046 12.3373 6.58195 12.3596 6.59455 12.3817C7.00106 13.0927 7.47021 13.7642 7.99426 14.3883C8.50748 14.9996 9.07335 15.5655 9.68461 16.0787C10.3087 16.6026 10.9801 17.0717 11.691 17.4782C11.7131 17.4908 11.7354 17.5022 11.7581 17.5126Z" fill="#5C34F6"/>
</svg>
