<svg width="24" height="24" viewBox="0 0 24 24" fill="none" xmlns="http://www.w3.org/2000/svg">
<path d="M18.2158 20.7373C16.9893 20.7373 15.5875 19.686 15.5875 19.686C15.5875 19.686 15.4123 19.5984 15.1495 19.4232C14.0982 18.7223 11.8203 17.2329 10.8566 16.4444C10.4185 16.094 10.1557 15.5684 10.1557 15.0427C10.1557 14.6923 10.2433 14.1666 10.8566 13.6409C11.2946 13.2029 11.8203 12.7648 12.2583 12.3268L9.01678 14.517C8.84156 14.6046 7.87785 15.2179 6.12565 14.6923C4.7239 14.2542 3.14692 13.7285 3.05931 13.7285L2.88409 13.6409C2.53365 13.3781 2.0956 12.9401 2.18321 12.2392C2.27082 11.1879 3.40975 10.7498 3.8478 10.5746L14.7114 6.10648C15.7627 5.66844 19.4424 4.17907 19.4424 4.17907C19.7052 4.09146 20.7565 3.74102 21.545 4.35429C21.8954 4.61712 22.2459 5.14278 22.1583 6.01887C22.1583 6.54453 21.8954 7.77107 21.6326 9.52327L21.3698 11.3631L20.2308 18.7223C20.1432 19.3356 19.7928 20.4745 18.6539 20.7373C18.4786 20.7373 18.391 20.7373 18.2158 20.7373ZM11.9079 14.9551C11.9079 15.0427 11.9079 15.0427 11.9079 14.9551C12.8716 15.7436 15.1495 17.2329 16.1132 17.8462C16.4636 18.0214 16.6388 18.1966 16.6388 18.1966C16.9893 18.4595 17.953 18.9851 18.2158 18.8975C18.3034 18.8975 18.391 18.6347 18.391 18.3719L19.8804 8.99761C20.1432 7.42063 20.3185 6.10648 20.3185 5.66844C20.3185 5.58083 20.3185 5.58083 20.3185 5.58083C20.2308 5.58083 20.0556 5.58083 19.968 5.66844C19.968 5.66844 16.376 7.1578 15.2371 7.59585L4.46107 12.1516C4.46107 12.1516 4.37346 12.1516 4.37346 12.2392C4.98673 12.4144 5.86282 12.7648 6.65131 12.9401C7.61502 13.2029 8.05307 12.9401 8.14068 12.9401L14.7114 8.55956C15.4999 8.0339 16.8141 7.1578 17.5149 8.0339C18.1282 8.73478 17.4273 9.69849 16.9893 10.2241C15.7627 11.4507 13.7477 13.3781 12.0831 14.9551C11.9955 14.9551 11.9079 14.9551 11.9079 14.9551Z" fill="#5C34F6"/>
</svg>
