<svg width="24" height="24" viewBox="0 0 24 24" fill="none" xmlns="http://www.w3.org/2000/svg">
<path d="M8.70187 7.33C8.54187 7.33 8.27187 7.39 8.04187 7.64C7.82188 7.89 7.17188 8.5 7.17188 9.71C7.17188 10.93 8.06187 12.1 8.17188 12.27C8.31187 12.44 9.93188 14.94 12.4219 16C13.0119 16.27 13.4719 16.42 13.8319 16.53C14.4219 16.72 14.9619 16.69 15.3919 16.63C15.8719 16.56 16.8519 16.03 17.0619 15.45C17.2719 14.87 17.2719 14.38 17.2119 14.27C17.1419 14.17 16.9819 14.11 16.7319 14C16.4819 13.86 15.2619 13.26 15.0419 13.18C14.8119 13.1 14.6719 13.06 14.4819 13.3C14.3219 13.55 13.8419 14.11 13.7019 14.27C13.5519 14.44 13.4119 14.46 13.1719 14.34C12.9119 14.21 12.1119 13.95 11.1719 13.11C10.4319 12.45 9.94187 11.64 9.79187 11.39C9.67188 11.15 9.78187 11 9.90187 10.89C10.0119 10.78 10.1719 10.6 10.2719 10.45C10.4019 10.31 10.4419 10.2 10.5219 10.04C10.6019 9.87 10.5619 9.73 10.5019 9.61C10.4419 9.5 9.94188 8.26 9.73188 7.77C9.53188 7.29 9.33187 7.35 9.17188 7.34C9.03188 7.34 8.87187 7.33 8.70187 7.33Z" fill="#5C34F6"/>
<path fill-rule="evenodd" clip-rule="evenodd" d="M19.3719 4.9C17.4719 3 14.9719 2 12.2719 2C6.77188 2 2.27188 6.5 2.27188 12C2.27188 13.8 2.77187 15.5 3.57187 17L2.17188 22.3L7.57188 20.9C9.07188 21.7 10.6719 22.1 12.3719 22.1C17.8719 22.1 22.3719 17.6 22.3719 12.1C22.2719 9.3 21.2719 6.8 19.3719 4.9ZM12.2719 20.1C10.7719 20.1 9.37187 19.7 8.17188 19L7.87187 18.8L4.87187 19.6L5.67188 16.7L5.47187 16.3C4.67187 15 4.27187 13.5 4.27187 12C4.27187 7.5 7.87188 3.9 12.3719 3.9C14.5719 3.9 16.5719 4.7 18.1719 6.3C19.6719 7.8 20.5719 9.9 20.5719 12.1C20.4719 16.5 16.7719 20.1 12.2719 20.1Z" fill="#5C34F6"/>
</svg>
