<svg width="24" height="24" viewBox="0 0 24 24" fill="none" xmlns="http://www.w3.org/2000/svg">
<path fill-rule="evenodd" clip-rule="evenodd" d="M12.1719 20C16.5902 20 20.1719 16.4183 20.1719 12C20.1719 7.58172 16.5902 4 12.1719 4C7.7536 4 4.17188 7.58172 4.17188 12C4.17188 16.4183 7.7536 20 12.1719 20ZM12.1719 22C17.6947 22 22.1719 17.5228 22.1719 12C22.1719 6.47715 17.6947 2 12.1719 2C6.64903 2 2.17188 6.47715 2.17188 12C2.17188 17.5228 6.64903 22 12.1719 22Z" fill="#5BA85A"/>
<path fill-rule="evenodd" clip-rule="evenodd" d="M16.879 9.29289C17.2695 9.68342 17.2695 10.3166 16.879 10.7071L11.3861 16.2C10.9916 16.5945 10.3521 16.5945 9.9577 16.2L7.46477 13.7071C7.07424 13.3166 7.07424 12.6834 7.46477 12.2929C7.85529 11.9024 8.48846 11.9024 8.87898 12.2929L10.6719 14.0858L15.4648 9.29289C15.8553 8.90237 16.4885 8.90237 16.879 9.29289Z" fill="#5BA85A"/>
</svg>
