<svg width="48" height="48" viewBox="0 0 48 48" fill="none" xmlns="http://www.w3.org/2000/svg">
<path d="M48 13.5V40.5C48 42.9844 45.9844 45 43.5 45H4.5C2.01562 45 0 42.9844 0 40.5V13.5C0 11.0156 2.01562 9 4.5 9H12.75L13.9031 5.91562C14.5594 4.1625 16.2375 3 18.1125 3H29.8781C31.7531 3 33.4313 4.1625 34.0875 5.91562L35.25 9H43.5C45.9844 9 48 11.0156 48 13.5ZM35.25 27C35.25 20.7938 30.2062 15.75 24 15.75C17.7938 15.75 12.75 20.7938 12.75 27C12.75 33.2062 17.7938 38.25 24 38.25C30.2062 38.25 35.25 33.2062 35.25 27ZM32.25 27C32.25 31.5469 28.5469 35.25 24 35.25C19.4531 35.25 15.75 31.5469 15.75 27C15.75 22.4531 19.4531 18.75 24 18.75C28.5469 18.75 32.25 22.4531 32.25 27Z" fill="white"/>
</svg>
