<svg width="16" height="16" viewBox="0 0 16 16" fill="none" xmlns="http://www.w3.org/2000/svg">
<path fill-rule="evenodd" clip-rule="evenodd" d="M1.25229 2.58578C1.62736 2.21071 2.13607 2 2.6665 2H7.33317C7.70136 2 7.99984 2.29848 7.99984 2.66667C7.99984 3.03485 7.70136 3.33333 7.33317 3.33333H2.6665C2.48969 3.33333 2.32012 3.40357 2.1951 3.52859C2.07008 3.65362 1.99984 3.82319 1.99984 4V13.3333C1.99984 13.5101 2.07008 13.6797 2.1951 13.8047C2.32012 13.9298 2.48969 14 2.6665 14H11.9998C12.1766 14 12.3462 13.9298 12.4712 13.8047C12.5963 13.6797 12.6665 13.5101 12.6665 13.3333V8.66667C12.6665 8.29848 12.965 8 13.3332 8C13.7014 8 13.9998 8.29848 13.9998 8.66667V13.3333C13.9998 13.8638 13.7891 14.3725 13.4141 14.7475C13.039 15.1226 12.5303 15.3333 11.9998 15.3333H2.6665C2.13607 15.3333 1.62736 15.1226 1.25229 14.7475C0.877218 14.3725 0.666504 13.8638 0.666504 13.3333V4C0.666504 3.46957 0.877217 2.96086 1.25229 2.58578Z" fill="white"/>
<path fill-rule="evenodd" clip-rule="evenodd" d="M13.3332 1.91912C13.1349 1.91912 12.9448 1.99788 12.8046 2.13807L6.60181 8.34083L6.24942 9.75042L7.659 9.39802L13.8618 3.19526C14.002 3.05507 14.0807 2.86493 14.0807 2.66667C14.0807 2.4684 14.002 2.27826 13.8618 2.13807C13.7216 1.99788 13.5314 1.91912 13.3332 1.91912ZM11.8618 1.19526C12.252 0.80502 12.7813 0.585785 13.3332 0.585785C13.8851 0.585785 14.4143 0.80502 14.8046 1.19526C15.1948 1.5855 15.4141 2.11478 15.4141 2.66667C15.4141 3.21855 15.1948 3.74783 14.8046 4.13807L8.47124 10.4714C8.3858 10.5568 8.27875 10.6175 8.16153 10.6468L5.49486 11.3134C5.26768 11.3702 5.02735 11.3037 4.86177 11.1381C4.69618 10.9725 4.62961 10.7322 4.68641 10.505L5.35308 7.83831C5.38238 7.72109 5.44299 7.61403 5.52843 7.52859L11.8618 1.19526Z" fill="white"/>
</svg>
