<svg width="20" height="20" viewBox="0 0 20 20" fill="none" xmlns="http://www.w3.org/2000/svg">
<path d="M16.7867 7.85714C16.7419 6.04143 16.1131 4.52738 14.9003 3.315C13.6874 2.10262 12.1734 1.47381 10.3581 1.42857C8.54241 1.47333 7.02836 2.10214 5.81598 3.315C4.6036 4.52786 3.97479 6.0419 3.92955 7.85714C3.92955 9.18143 4.46145 10.6955 5.52526 12.3993C6.58907 14.1031 8.20002 15.9893 10.3581 18.0579C12.5157 15.9893 14.1267 14.1031 15.191 12.3993C16.2553 10.6955 16.7872 9.18143 16.7867 7.85714ZM10.3581 20C5.12002 15.2381 2.50098 11.1905 2.50098 7.85714C2.5605 5.62476 3.32693 3.77214 4.80026 2.29929C6.2736 0.826428 8.12621 0.06 10.3581 0C12.5905 0.0595238 14.4431 0.825952 15.916 2.29929C17.3888 3.77262 18.1553 5.62524 18.2153 7.85714C18.2153 11.1905 15.5962 15.2381 10.3581 20ZM10.3581 10C10.9681 9.98524 11.4741 9.77691 11.876 9.375C12.2779 8.9731 12.4788 8.46714 12.4788 7.85714C12.4788 7.24714 12.2779 6.74119 11.876 6.33929C11.4741 5.93738 10.9681 5.73643 10.3581 5.73643C9.74812 5.73643 9.24217 5.93738 8.84026 6.33929C8.43836 6.74119 8.23741 7.24714 8.23741 7.85714C8.23741 8.46714 8.43836 8.9731 8.84026 9.375C9.24217 9.77691 9.74812 9.98524 10.3581 10ZM10.3581 11.4286C9.34621 11.3986 8.5055 11.0488 7.83598 10.3793C7.16645 9.70976 6.81669 8.86905 6.78669 7.85714C6.81669 6.84524 7.16645 6.00452 7.83598 5.335C8.5055 4.66548 9.34621 4.31571 10.3581 4.28571C11.37 4.31571 12.2107 4.66548 12.8803 5.335C13.5498 6.00452 13.8995 6.84524 13.9295 7.85714C13.8995 8.86905 13.5498 9.70976 12.8803 10.3793C12.2107 11.0488 11.37 11.3986 10.3581 11.4286Z" fill="#4C4C4C"/>
</svg>
