<svg width="28" height="28" viewBox="0 0 28 28" fill="none" xmlns="http://www.w3.org/2000/svg">
<path fill-rule="evenodd" clip-rule="evenodd" d="M7.78167 7.78131C8.12338 7.4396 8.6774 7.4396 9.01911 7.78131L14.0004 12.7626L18.9817 7.78131C19.3234 7.4396 19.8774 7.4396 20.2191 7.78131C20.5608 8.12301 20.5608 8.67703 20.2191 9.01874L15.2378 14L20.2191 18.9813C20.5608 19.323 20.5608 19.877 20.2191 20.2187C19.8774 20.5605 19.3234 20.5605 18.9817 20.2187L14.0004 15.2375L9.01911 20.2187C8.6774 20.5605 8.12338 20.5605 7.78167 20.2187C7.43996 19.877 7.43996 19.323 7.78167 18.9813L12.763 14L7.78167 9.01874C7.43996 8.67703 7.43996 8.12301 7.78167 7.78131Z" fill="black"/>
</svg>
