<svg width="28" height="28" viewBox="0 0 28 28" fill="none" xmlns="http://www.w3.org/2000/svg">
<g clip-path="url(#clip0_1728_54902)">
<path d="M21.2684 21.327C20.8559 21.7395 20.1134 21.822 19.6184 21.327L13.7495 15.4581L7.79809 21.4095C7.38561 21.822 6.64315 21.9045 6.14817 21.4095C5.6532 20.9145 5.6532 20.2545 6.14817 19.7596L12.0996 13.8081L6.14817 7.85672C5.73569 7.44424 5.6532 6.70178 6.14817 6.20681C6.64315 5.71183 7.30312 5.71183 7.79809 6.20681L13.7495 12.1582L19.7009 6.20681C20.1134 5.79433 20.8559 5.71183 21.3508 6.20681C21.8458 6.70178 21.8458 7.36175 21.3508 7.85672L15.3994 13.8081L21.3509 19.7596C21.7633 20.172 21.6808 20.9145 21.2684 21.327Z" fill="white"/>
</g>
<defs>
<clipPath id="clip0_1728_54902">
<rect width="28" height="28" fill="white"/>
</clipPath>
</defs>
</svg>
