<svg width="25" height="24" viewBox="0 0 25 24" fill="none" xmlns="http://www.w3.org/2000/svg">
<path d="M21.8 6.6C21.5 5.9 21.1 5.3 20.5 4.7C20 4.2 19.3 3.7 18.6 3.4C17.9 3.1 17.1 3 16.4 3C15.7 3 14.9 3.1 14.2 3.4C13.5 3.7 12.9 4.1 12.3 4.7L12.1 4.9L11.9 4.7C10.8 3.6 9.4 3 7.8 3C6.3 3 4.8 3.6 3.7 4.7C2.6 5.8 2 7.2 2 8.8C2 10.3 2.6 11.8 3.7 12.9L11.4 20.6C11.6 20.8 11.8 20.9 12.1 20.9C12.4 20.9 12.6 20.8 12.8 20.6L20.5 12.9C21 12.4 21.5 11.7 21.8 11C22.1 10.3 22.2 9.5 22.2 8.8C22.2 8.1 22.1 7.3 21.8 6.6Z" fill="#5C34F6"/>
</svg>
