<svg width="24" height="24" viewBox="0 0 24 24" fill="none" xmlns="http://www.w3.org/2000/svg">
<g clip-path="url(#clip0_1592_11501)">
<path d="M12 24C18.6274 24 24 18.6274 24 12C24 5.37258 18.6274 0 12 0C5.37258 0 0 5.37258 0 12C0 18.6274 5.37258 24 12 24Z" fill="#F9F1FC"/>
<path d="M16.6619 18.553C15.742 18.553 14.6906 17.7645 14.6906 17.7645C14.6906 17.7645 14.5592 17.6988 14.3621 17.5674C13.5736 17.0417 11.8652 15.9247 11.1424 15.3333C10.8139 15.0705 10.6168 14.6763 10.6168 14.282C10.6168 14.0192 10.6825 13.6249 11.1424 13.2307C11.471 12.9022 11.8652 12.5736 12.1938 12.2451L9.76258 13.8878C9.63117 13.9535 8.90839 14.4134 7.59424 14.0192C6.54292 13.6907 5.36019 13.2964 5.29448 13.2964L5.16307 13.2307C4.90024 13.0336 4.5717 12.705 4.63741 12.1794C4.70311 11.3909 5.55731 11.0624 5.88585 10.9309L14.0336 7.57986C14.8221 7.25133 17.5818 6.1343 17.5818 6.1343C17.7789 6.06859 18.5674 5.80576 19.1587 6.26572C19.4216 6.46284 19.6844 6.85708 19.6187 7.51416C19.6187 7.9084 19.4216 8.8283 19.2245 10.1425L19.0273 11.5223L18.1731 17.0417C18.1074 17.5017 17.8446 18.3559 16.9904 18.553C16.859 18.553 16.7933 18.553 16.6619 18.553ZM11.9309 14.2163C11.9309 14.282 11.9309 14.282 11.9309 14.2163C12.6537 14.8077 14.3621 15.9247 15.0849 16.3847C15.3477 16.5161 15.4791 16.6475 15.4791 16.6475C15.742 16.8446 16.4647 17.2389 16.6619 17.1731C16.7276 17.1731 16.7933 16.976 16.7933 16.7789L17.9103 9.74821C18.1074 8.56547 18.2388 7.57986 18.2388 7.25133C18.2388 7.18562 18.2388 7.18562 18.2388 7.18562C18.1731 7.18562 18.0417 7.18562 17.976 7.25133C17.976 7.25133 15.282 8.36835 14.4278 8.69689L6.3458 12.1137C6.3458 12.1137 6.28009 12.1137 6.28009 12.1794C6.74004 12.3108 7.39712 12.5736 7.98848 12.705C8.71127 12.9022 9.0398 12.705 9.10551 12.705L14.0336 9.41967C14.6249 9.02543 15.6105 8.36835 16.1362 9.02543C16.5962 9.55108 16.0705 10.2739 15.742 10.6681C14.8221 11.588 13.3108 13.0336 12.0623 14.2163C11.9966 14.2163 11.9309 14.2163 11.9309 14.2163Z" fill="#E7CBF1"/>
</g>
<defs>
<clipPath id="clip0_1592_11501">
<rect width="24" height="24" fill="white"/>
</clipPath>
</defs>
</svg>
