<svg width="24" height="24" viewBox="0 0 24 24" fill="none" xmlns="http://www.w3.org/2000/svg">
<path fill-rule="evenodd" clip-rule="evenodd" d="M19.3719 12.3V19C19.3719 19.7 19.0719 20.3 18.5719 20.8C18.0719 21.3 17.4719 21.6 16.7719 21.6H6.77187C6.07187 21.6 5.47187 21.3 4.97187 20.8C4.47187 20.3 4.17188 19.7 4.17188 19V12.3C4.17188 11.8 4.57187 11.4 5.07187 11.4C5.57187 11.4 5.97187 11.8 5.97187 12.3V19C5.97187 19.2 6.07187 19.4 6.17188 19.5C6.37188 19.7 6.47187 19.7 6.67188 19.7H16.6719C16.8719 19.7 17.0719 19.6 17.1719 19.5C17.2719 19.4 17.3719 19.2 17.3719 19V12.3C17.3719 11.8 17.7719 11.4 18.2719 11.4C18.9719 11.4 19.3719 11.8 19.3719 12.3Z" fill="#4C4C4C"/>
<path fill-rule="evenodd" clip-rule="evenodd" d="M15.7719 7.9C15.3719 8.3 14.8719 8.3 14.4719 7.9L12.6719 6.1V14.8C12.6719 15.3 12.2719 15.7 11.7719 15.7C11.2719 15.7 10.8719 15.3 10.8719 14.8V6.1L9.07187 7.9C8.77187 8.3 8.17187 8.3 7.77187 7.9C7.37187 7.6 7.37187 7 7.77187 6.6L11.0719 3.3C11.2719 3.1 11.4719 3 11.7719 3C11.9719 3 12.2719 3.1 12.3719 3.3L15.6719 6.6C16.0719 7 16.0719 7.6 15.7719 7.9Z" fill="#4C4C4C"/>
</svg>
