<svg width="56" height="56" viewBox="0 0 56 56" fill="none" xmlns="http://www.w3.org/2000/svg">
<path d="M4.75977 28C4.75977 15.113 15.2038 4.66663 28.0931 4.66663C40.9778 4.66663 51.4264 15.113 51.4264 28C51.4264 40.887 40.9778 51.3333 28.0931 51.3333C15.2038 51.3333 4.75977 40.887 4.75977 28Z" fill="#FC3F1D"/>
<path d="M31.0799 17.8873H28.9239C24.9712 17.8873 22.8922 19.8893 22.8922 22.841C22.8922 26.1777 24.3296 27.741 27.2812 29.7453L29.7196 31.388L22.7126 41.8577H17.4766L23.7649 32.4917C20.1482 29.8994 18.1182 27.3817 18.1182 23.1233C18.1182 17.7847 21.8399 14.14 28.8982 14.14H35.9052V41.832H31.0799V17.8873Z" fill="white"/>
</svg>
