<svg width="24" height="24" viewBox="0 0 24 24" fill="none" xmlns="http://www.w3.org/2000/svg">
<path d="M12.1143 12C11.0143 12 10.1143 11.6 9.31426 10.8C8.51426 10.1 8.11426 9.1 8.11426 8C8.11426 6.9 8.51426 6 9.31426 5.2C10.0143 4.4 11.0143 4 12.1143 4C13.2143 4 14.1143 4.4 14.9143 5.2C15.7143 5.9 16.1143 6.9 16.1143 8C16.1143 9.1 15.7143 10 14.9143 10.8C14.2143 11.6 13.2143 12 12.1143 12ZM4.11426 18.6V17.2C4.11426 16.8 4.21426 16.3 4.41426 15.9C4.71426 15.3 5.11426 14.8 5.71426 14.5C6.71426 14 7.81426 13.6 8.91426 13.3C10.0143 13 11.0143 13 12.1143 13C13.2143 13 14.3143 13.1 15.4143 13.4C16.5143 13.7 17.5143 14 18.5143 14.6C19.1143 14.9 19.5143 15.4 19.8143 16C20.0143 16.4 20.1143 16.8 20.1143 17.2V18.6C20.1143 19.4 19.5143 20 18.7143 20H5.51426C4.71426 20 4.11426 19.4 4.11426 18.6ZM6.11426 17.7C6.11426 17.8657 6.24857 18 6.41426 18H17.8143C17.98 18 18.1143 17.8657 18.1143 17.7V17.2C18.1143 16.8544 17.9671 16.4926 17.6642 16.3261C17.6483 16.3174 17.6317 16.3087 17.6143 16.3C16.7143 15.8 15.8143 15.5 14.9143 15.3C14.0143 15.1 13.0143 15 12.1143 15C11.2143 15 10.2143 15.1 9.31426 15.3C8.41426 15.5 7.51426 15.9 6.61426 16.3C6.41426 16.4 6.31426 16.5 6.21426 16.7C6.11426 16.9 6.11426 17 6.11426 17.2V17.7ZM12.1143 10C12.7143 10 13.1143 9.8 13.5143 9.4C13.9143 9 14.1143 8.6 14.1143 8C14.1143 7.4 13.9143 7 13.5143 6.6C13.1143 6.2 12.7143 6 12.1143 6C11.5143 6 11.1143 6.2 10.7143 6.6C10.3143 7 10.1143 7.4 10.1143 8C10.1143 8.6 10.3143 9 10.7143 9.4C11.1143 9.8 11.5143 10 12.1143 10Z" fill="#5C34F6"/>
</svg>
