<svg width="24" height="24" viewBox="0 0 24 24" fill="none" xmlns="http://www.w3.org/2000/svg">
<path fill-rule="evenodd" clip-rule="evenodd" d="M7.22221 3.05025C8.53496 1.7375 10.3154 1 12.172 1C14.0285 1 15.8089 1.7375 17.1217 3.05025C18.4345 4.36301 19.172 6.14349 19.172 8C19.172 11.3527 19.889 13.4346 20.5498 14.6461C20.8816 15.2544 21.2047 15.6535 21.4292 15.8904C21.5416 16.0091 21.63 16.0878 21.6832 16.1322C21.7099 16.1544 21.7277 16.168 21.7354 16.1737C21.7366 16.1746 21.7376 16.1753 21.7383 16.1758C22.0967 16.4221 22.2554 16.8725 22.129 17.2898C22.0013 17.7115 21.6126 18 21.172 18H3.17195C2.73129 18 2.34256 17.7115 2.21486 17.2898C2.08852 16.8725 2.24716 16.4221 2.60564 16.1758C2.60634 16.1753 2.6073 16.1746 2.6085 16.1737C2.6162 16.168 2.63405 16.1544 2.66067 16.1322C2.71389 16.0878 2.80227 16.0091 2.91475 15.8904C3.13918 15.6535 3.46226 15.2544 3.79406 14.6461C4.45489 13.4346 5.17195 11.3527 5.17195 8C5.17195 6.14348 5.90945 4.36301 7.22221 3.05025ZM5.32128 16H19.0226C18.9465 15.8753 18.8702 15.7434 18.7941 15.6039C17.9549 14.0654 17.172 11.6473 17.172 8C17.172 6.67392 16.6452 5.40215 15.7075 4.46447C14.7698 3.52678 13.498 3 12.172 3C10.8459 3 9.5741 3.52678 8.63642 4.46447C7.69874 5.40215 7.17195 6.67392 7.17195 8C7.17195 11.6473 6.38902 14.0654 5.54985 15.6039C5.47375 15.7434 5.39736 15.8753 5.32128 16Z" fill="#5C34F6"/>
<path fill-rule="evenodd" clip-rule="evenodd" d="M10.0651 20.3512C10.4234 20.1434 10.8823 20.2654 11.0902 20.6237C11.2 20.8131 11.3578 20.9703 11.5475 21.0796C11.7373 21.1889 11.9524 21.2465 12.1714 21.2465C12.3904 21.2465 12.6055 21.1889 12.7953 21.0796C12.9851 20.9703 13.1428 20.8131 13.2527 20.6237C13.4605 20.2654 13.9194 20.1434 14.2777 20.3512C14.636 20.5591 14.758 21.018 14.5502 21.3763C14.3084 21.7931 13.9614 22.139 13.544 22.3794C13.1265 22.6199 12.6532 22.7465 12.1714 22.7465C11.6896 22.7465 11.2163 22.6199 10.7988 22.3794C10.3814 22.139 10.0344 21.7931 9.79266 21.3763C9.58482 21.018 9.70678 20.5591 10.0651 20.3512Z" fill="#5C34F6"/>
</svg>
