<svg width="56" height="56" viewBox="0 0 56 56" fill="none" xmlns="http://www.w3.org/2000/svg">
<path d="M4.75977 28C4.75977 15.113 15.2038 4.66663 28.0931 4.66663C40.9778 4.66663 51.4264 15.113 51.4264 28C51.4264 40.887 40.9778 51.3333 28.0931 51.3333C15.2038 51.3333 4.75977 40.887 4.75977 28Z" fill="#5C34F6"/>
<path fill-rule="evenodd" clip-rule="evenodd" d="M36.2719 22.6L31.8719 18.3C31.6719 18.1 31.4719 18 31.1719 18H22.4719C21.2719 18 20.1719 19 20.1719 20.2V36.2C20.1719 37.4 21.1719 38.4 22.4719 38.4H34.3719C35.5719 38.4 36.6719 37.4 36.6719 36.2V23.2C36.5719 23 36.4719 22.7 36.2719 22.6ZM32.2719 21.2L34.1719 23H32.6719C32.4719 23 32.2719 22.8 32.2719 22.6V21.2ZM22.0719 20.2C22.0719 20 22.2719 19.8 22.4719 19.8H30.3719V22.6C30.3719 23.8 31.3719 24.8 32.6719 24.8H34.7719V36.2C34.7719 36.4 34.5719 36.6 34.3719 36.6H22.4719C22.2719 36.6 22.0719 36.4 22.0719 36.2V20.2Z" fill="white"/>
</svg>
