<svg width="24" height="24" viewBox="0 0 24 24" fill="none" xmlns="http://www.w3.org/2000/svg">
<path fill-rule="evenodd" clip-rule="evenodd" d="M4 6.93479C4 5.55408 5.11929 4.43479 6.5 4.43479H9.5C10.0523 4.43479 10.5 4.88251 10.5 5.43479C10.5 5.98708 10.0523 6.43479 9.5 6.43479H6.5C6.22386 6.43479 6 6.65865 6 6.93479V17.9348C6 18.2109 6.22386 18.4348 6.5 18.4348H16.5C16.7761 18.4348 17 18.2109 17 17.9348V15.4348C17 14.8825 17.4477 14.4348 18 14.4348C18.5523 14.4348 19 14.8825 19 15.4348V17.9348C19 19.3155 17.8807 20.4348 16.5 20.4348H6.5C5.11929 20.4348 4 19.3155 4 17.9348V6.93479Z" fill="#5C34F6"/>
<path fill-rule="evenodd" clip-rule="evenodd" d="M19.322 10.9269C18.758 10.883 18.4329 10.5031 18.4767 9.93914L18.674 7.40121L12.0639 13.0578C11.684 13.3828 11.1201 13.339 10.795 12.9591C10.4699 12.5792 10.5137 12.0152 10.8936 11.6901L17.5037 6.0336L14.9658 5.83631C14.4668 5.86845 14.0767 5.41258 14.1206 4.8486C14.0884 4.34963 14.5443 3.95952 15.1083 4.00337L19.7611 4.36506C20.0431 4.38698 20.2491 4.47392 20.4442 4.70185C20.5742 4.85381 20.6933 5.14676 20.6064 5.35278L20.2447 10.0056C20.2008 10.5696 19.745 10.9597 19.322 10.9269Z" fill="#5C34F6"/>
</svg>
