<svg width="24" height="24" viewBox="0 0 24 24" fill="none" xmlns="http://www.w3.org/2000/svg">
<path d="M11.8278 9.31564C11.9048 9.18224 12.0973 9.18224 12.1743 9.31564L14.3839 13.1456C14.7017 13.6965 15.4463 13.8146 15.9191 13.3892L17.5529 11.9187C17.696 11.7899 17.9206 11.9178 17.8828 12.1066L17.3332 14.8546C17.3145 14.9481 17.2324 15.0154 17.1371 15.0154H6.86503C6.7697 15.0154 6.68762 14.9481 6.66892 14.8546L6.11932 12.1066C6.08157 11.9178 6.30615 11.7899 6.44923 11.9187L8.08309 13.3892C8.55583 13.8146 9.30041 13.6965 9.61824 13.1456L11.8278 9.31564ZM12.8649 6.49613C12.479 5.83462 11.5232 5.83462 11.1373 6.49613L8.50107 11.0154L5.18579 8.00147C4.4783 7.3583 3.3582 7.97957 3.52924 8.92029L4.85178 16.1943C4.93823 16.6697 5.35237 17.0154 5.83565 17.0154H18.1665C18.6498 17.0154 19.0639 16.6697 19.1504 16.1943L20.4729 8.9203C20.6439 7.97957 19.5239 7.35829 18.8164 8.00147L15.5011 11.0154L12.8649 6.49613Z" fill="#5C34F6"/>
</svg>
