<svg width="24" height="24" viewBox="0 0 24 24" fill="none" xmlns="http://www.w3.org/2000/svg">
<g clip-path="url(#clip0_1592_11483)">
<path d="M12 24C18.6274 24 24 18.6274 24 12C24 5.37258 18.6274 0 12 0C5.37258 0 0 5.37258 0 12C0 18.6274 5.37258 24 12 24Z" fill="#EEF3FD"/>
<path fill-rule="evenodd" clip-rule="evenodd" d="M8.62617 6.63745C7.11654 6.63745 5.88867 7.86532 5.88867 9.37495C5.88867 10.8846 7.11654 12.1125 8.62617 12.1125C10.1358 12.1125 11.3637 10.8846 11.3637 9.37495C11.3637 7.86532 10.1358 6.63745 8.62617 6.63745ZM7.23867 9.37495C7.23867 8.61208 7.8633 7.98745 8.62617 7.98745C9.38904 7.98745 10.0137 8.61208 10.0137 9.37495C10.0137 10.1378 9.38904 10.7625 8.62617 10.7625C7.8633 10.7625 7.23867 10.1378 7.23867 9.37495Z" fill="#B7CBF2"/>
<path fill-rule="evenodd" clip-rule="evenodd" d="M15.3762 6.63745C13.8665 6.63745 12.6387 7.86532 12.6387 9.37495C12.6387 10.8846 13.8665 12.1125 15.3762 12.1125C16.8858 12.1125 18.1137 10.8846 18.1137 9.37495C18.1137 7.86532 16.8858 6.63745 15.3762 6.63745ZM13.9887 9.37495C13.9887 8.61208 14.6133 7.98745 15.3762 7.98745C16.139 7.98745 16.7637 8.61208 16.7637 9.37495C16.7637 10.1378 16.139 10.7625 15.3762 10.7625C14.6133 10.7625 13.9887 10.1378 13.9887 9.37495Z" fill="#B7CBF2"/>
<path fill-rule="evenodd" clip-rule="evenodd" d="M8.62617 12.6375C7.79848 12.6375 6.56552 12.8425 5.53659 13.2539C5.02205 13.4597 4.55144 13.7197 4.20768 14.0374C3.8631 14.3557 3.63867 14.7394 3.63867 15.1875V16.5C3.63867 16.9763 4.02483 17.3625 4.50117 17.3625H19.5012C19.9775 17.3625 20.3637 16.9763 20.3637 16.5V15.1875C20.3637 14.7394 20.1392 14.3557 19.7947 14.0374C19.4509 13.7197 18.9803 13.4597 18.4657 13.2539C17.4368 12.8425 16.2039 12.6375 15.3762 12.6375C14.4745 12.6375 13.0835 12.888 12.0015 13.3761C10.9188 12.8806 9.52737 12.6375 8.62617 12.6375ZM4.98867 15.1875C4.98867 15.1786 4.99615 15.1464 5.04662 15.0892C5.09417 15.0353 5.16802 14.9726 5.26808 14.9045C5.46759 14.7687 5.75661 14.6209 6.10594 14.4841C6.80452 14.2106 7.72802 13.9875 8.62617 13.9875C9.52432 13.9875 10.4478 14.2106 11.1464 14.4841C11.4957 14.6209 11.7847 14.7687 11.9843 14.9045C12.0843 14.9726 12.1582 15.0353 12.2057 15.0892C12.2562 15.1464 12.2637 15.1786 12.2637 15.1875V16.0125H4.98867V15.1875ZM13.6137 15.1875C13.6137 14.8638 13.4934 14.58 13.3025 14.328C13.923 14.1315 14.6571 13.9875 15.3762 13.9875C16.2743 13.9875 17.1978 14.2106 17.8964 14.4841C18.2457 14.6209 18.5347 14.7687 18.7343 14.9045C18.8343 14.9726 18.9082 15.0353 18.9557 15.0892C19.0062 15.1464 19.0137 15.1786 19.0137 15.1875V16.0125H13.6137V15.1875Z" fill="#B7CBF2"/>
</g>
<defs>
<clipPath id="clip0_1592_11483">
<rect width="24" height="24" fill="white"/>
</clipPath>
</defs>
</svg>
