<svg width="24" height="24" viewBox="0 0 24 24" fill="none" xmlns="http://www.w3.org/2000/svg">
<path fill-rule="evenodd" clip-rule="evenodd" d="M12.299 19.2H5.59902C4.89902 19.2 4.29902 18.9 3.79902 18.4C3.29902 17.9 2.99902 17.3 2.99902 16.6L2.99902 6.6C2.99902 5.9 3.29902 5.3 3.79902 4.8C4.29902 4.3 4.89903 4 5.59903 4L12.299 4C12.799 4 13.199 4.4 13.199 4.9C13.199 5.4 12.799 5.8 12.299 5.8L5.59903 5.8C5.39903 5.8 5.19902 5.9 5.09902 6C4.89902 6.2 4.89902 6.3 4.89902 6.5L4.89902 16.5C4.89902 16.7 4.99902 16.9 5.09902 17C5.19902 17.1 5.39902 17.2 5.59902 17.2H12.299C12.799 17.2 13.199 17.6 13.199 18.1C13.199 18.8 12.799 19.2 12.299 19.2Z" fill="#DA3F3D"/>
<path fill-rule="evenodd" clip-rule="evenodd" d="M16.699 15.6C16.299 15.2 16.299 14.7 16.699 14.3L18.499 12.5L9.79902 12.5C9.29902 12.5 8.89902 12.1 8.89902 11.6C8.89902 11.1 9.29902 10.7 9.79902 10.7L18.499 10.7L16.699 8.9C16.299 8.6 16.299 8 16.699 7.6C16.999 7.2 17.599 7.2 17.999 7.6L21.299 10.9C21.499 11.1 21.599 11.3 21.599 11.6C21.599 11.8 21.499 12.1 21.299 12.2L17.999 15.5C17.599 15.9 16.999 15.9 16.699 15.6Z" fill="#DA3F3D"/>
</svg>
