<svg width="16" height="16" viewBox="0 0 16 16" fill="none" xmlns="http://www.w3.org/2000/svg">
<path fill-rule="evenodd" clip-rule="evenodd" d="M7.00033 2.5C4.33095 2.5 2.16699 4.66396 2.16699 7.33333C2.16699 10.0027 4.33095 12.1667 7.00033 12.1667C9.6697 12.1667 11.8337 10.0027 11.8337 7.33333C11.8337 4.66396 9.6697 2.5 7.00033 2.5ZM1.16699 7.33333C1.16699 4.11167 3.77866 1.5 7.00033 1.5C10.222 1.5 12.8337 4.11167 12.8337 7.33333C12.8337 10.555 10.222 13.1667 7.00033 13.1667C3.77866 13.1667 1.16699 10.555 1.16699 7.33333Z" fill="black"/>
<path fill-rule="evenodd" clip-rule="evenodd" d="M10.7461 10.7464C10.9413 10.5512 11.2579 10.5512 11.4532 10.7464L14.3532 13.6464C14.5484 13.8417 14.5484 14.1583 14.3532 14.3535C14.1579 14.5488 13.8413 14.5488 13.6461 14.3535L10.7461 11.4535C10.5508 11.2583 10.5508 10.9417 10.7461 10.7464Z" fill="black"/>
</svg>
