<svg width="24" height="24" viewBox="0 0 24 24" fill="none" xmlns="http://www.w3.org/2000/svg">
<path d="M21.9719 6.6C21.6719 5.9 21.2719 5.3 20.6719 4.7C20.1719 4.2 19.4719 3.7 18.7719 3.4C18.0719 3.1 17.2719 3 16.5719 3C15.8719 3 15.0719 3.1 14.3719 3.4C13.6719 3.7 13.0719 4.1 12.4719 4.7L12.2719 4.9L12.0719 4.7C10.9719 3.6 9.57187 3 7.97187 3C6.47187 3 4.97187 3.6 3.87187 4.7C2.77187 5.8 2.17188 7.2 2.17188 8.8C2.17188 10.3 2.77187 11.8 3.87187 12.9L11.5719 20.6C11.7719 20.8 11.9719 20.9 12.2719 20.9C12.5719 20.9 12.7719 20.8 12.9719 20.6L20.6719 12.9C21.1719 12.4 21.6719 11.7 21.9719 11C22.2719 10.3 22.3719 9.5 22.3719 8.8C22.3719 8.1 22.2719 7.3 21.9719 6.6ZM5.27187 6.1C5.97187 5.4 6.97187 5 7.97187 5C8.97187 5 9.97188 5.4 10.6719 6.1L11.5719 7C11.9719 7.4 12.5719 7.4 12.9719 7L13.8719 6.1C14.2719 5.7 14.6719 5.5 15.1719 5.3C16.0719 4.9 17.1719 4.9 18.0719 5.3C18.5719 5.4 18.9719 5.7 19.2719 6.1C19.6719 6.5 19.8719 6.9 20.0719 7.3C20.2719 7.8 20.3719 8.3 20.3719 8.8C20.3719 9.3 20.2719 9.8 20.0719 10.3C19.8719 10.8 19.5719 11.2 19.2719 11.6L12.2719 18.6L5.27187 11.6C4.57187 10.9 4.17188 9.9 4.17188 8.9C4.07187 7.8 4.57187 6.8 5.27187 6.1Z" fill="#5C34F6"/>
</svg>
