<svg width="24" height="24" viewBox="0 0 24 24" fill="none" xmlns="http://www.w3.org/2000/svg">
<path d="M15.0013 19.88C15.0413 20.18 14.9413 20.5 14.7213 20.71C14.3213 21.1 13.6913 21.1 13.3013 20.71L9.29132 16.7C9.06132 16.47 8.96132 16.16 9.00132 15.87V11.0944C9.00132 10.8712 8.92668 10.6545 8.78929 10.4786L4.21132 4.62C3.87132 4.19 3.95132 3.56 4.38132 3.22C4.57132 3.08 4.78132 3 5.00132 3H19.0013C19.2213 3 19.4313 3.08 19.6213 3.22C20.0513 3.56 20.1313 4.19 19.7913 4.62L15.2134 10.4786C15.076 10.6545 15.0013 10.8712 15.0013 11.0944V19.88ZM7.65631 5C7.40638 5 7.26603 5.2877 7.41988 5.48467L10.8954 9.93435C10.964 10.0223 11.0013 10.1306 11.0013 10.2421V15.3729C11.0013 15.5055 11.054 15.6327 11.1478 15.7264L12.6599 17.2386C12.7859 17.3646 13.0013 17.2753 13.0013 17.0972V10.2227C13.0013 10.1108 13.0388 10.0022 13.1079 9.91413L16.5809 5.48512C16.7353 5.28824 16.595 5 16.3448 5H7.65631Z" fill="#4C4C4C"/>
</svg>
