<svg width="28" height="28" viewBox="0 0 28 28" fill="none" xmlns="http://www.w3.org/2000/svg">
<path d="M18.4661 13.9999C18.4661 14.3499 18.3495 14.5833 18.1161 14.8166L11.1161 21.8166C10.8828 21.9333 10.6495 22.1666 10.2995 22.1666C9.94948 22.1666 9.71615 22.0499 9.48281 21.8166C9.24948 21.5833 9.13281 21.3499 9.13281 20.9999C9.13281 20.6499 9.24948 20.4166 9.48281 20.1833L15.6661 13.9999L9.48281 7.81658C9.13281 7.34992 9.13281 6.64992 9.48281 6.18325C9.83281 5.71659 10.6495 5.71659 10.9995 6.18325L17.9995 13.1833C18.2328 13.4166 18.4661 13.7666 18.4661 13.9999Z" fill="#BDBDCD"/>
</svg>
