<svg width="24" height="24" viewBox="0 0 24 24" fill="none" xmlns="http://www.w3.org/2000/svg">
<path fill-rule="evenodd" clip-rule="evenodd" d="M15 4.23939L18.3 7.53939C18.5 7.73939 18.6 7.93939 18.6 8.13939C18.6 8.43939 18.5 8.63939 18.3 8.83939L15 12.1394C14.6 12.5394 14.1 12.5394 13.7 12.1394C13.4 11.8394 13.4 11.2394 13.7 10.8394L15.5 9.03939L6.9 9.03939C6.4 9.03939 6 8.63939 6 8.13939C6 7.63939 6.4 7.23939 6.9 7.23939L15.6 7.23939L13.8 5.43939C13.5 5.13939 13.5 4.53939 13.8 4.13939C14.1 3.93939 14.6 3.93939 15 4.23939Z" fill="#5C34F6"/>
<path fill-rule="evenodd" clip-rule="evenodd" d="M9.60156 20.2L6.30156 16.9C6.10156 16.7 6.00156 16.5 6.00156 16.3C6.00156 16 6.10156 15.8 6.30156 15.6L9.60156 12.3C10.0016 11.9 10.5016 11.9 10.9016 12.3C11.2016 12.6 11.2016 13.2 10.9016 13.6L9.10156 15.4L17.7016 15.4C18.2016 15.4 18.6016 15.8 18.6016 16.3C18.6016 16.8 18.2016 17.2 17.7016 17.2L9.00156 17.2L10.8016 19C11.1016 19.3 11.1016 19.9 10.8016 20.3C10.5016 20.5 10.0016 20.5 9.60156 20.2Z" fill="#5C34F6"/>
</svg>
