<svg width="24" height="24" viewBox="0 0 24 24" fill="none" xmlns="http://www.w3.org/2000/svg">
<g clip-path="url(#clip0_1592_11512)">
<path d="M12 24C18.6274 24 24 18.6274 24 12C24 5.37258 18.6274 0 12 0C5.37258 0 0 5.37258 0 12C0 18.6274 5.37258 24 12 24Z" fill="#F8F8F8"/>
<path fill-rule="evenodd" clip-rule="evenodd" d="M18.2039 7.95L14.9039 4.725C14.7539 4.575 14.6039 4.5 14.3789 4.5H7.85391C6.95391 4.5 6.12891 5.25 6.12891 6.15V18.15C6.12891 19.05 6.87891 19.8 7.85391 19.8H16.7789C17.6789 19.8 18.5039 19.05 18.5039 18.15V8.4C18.4289 8.25 18.3539 8.025 18.2039 7.95ZM15.2039 6.9L16.6289 8.25H15.5039C15.3539 8.25 15.2039 8.1 15.2039 7.95V6.9ZM17.0039 18.15C17.0039 18.3 16.8539 18.45 16.7039 18.45H7.85391C7.70391 18.45 7.55391 18.3 7.55391 18.15V6.15C7.55391 6 7.70391 5.85 7.85391 5.85H13.7789V7.95C13.7789 8.85 14.5289 9.6 15.5039 9.6H17.0789V18.15H17.0039Z" fill="#BCB8CA"/>
<path fill-rule="evenodd" clip-rule="evenodd" d="M16.0289 12.9C16.0289 13.275 15.7289 13.65 15.2789 13.65H9.27891C8.90391 13.65 8.52891 13.35 8.52891 12.9C8.52891 12.45 8.82891 12.15 9.27891 12.15H15.2789C15.6539 12.225 16.0289 12.525 16.0289 12.9Z" fill="#BCB8CA"/>
<path fill-rule="evenodd" clip-rule="evenodd" d="M15.2789 15.375C15.2789 15.75 14.9789 16.125 14.5289 16.125H10.0289C9.65391 16.125 9.27891 15.825 9.27891 15.375C9.27891 14.925 9.57891 14.625 10.0289 14.625H14.5289C14.9039 14.625 15.2789 14.925 15.2789 15.375Z" fill="#BCB8CA"/>
</g>
<defs>
<clipPath id="clip0_1592_11512">
<rect width="24" height="24" fill="white"/>
</clipPath>
</defs>
</svg>
