<svg width="24" height="24" viewBox="0 0 24 24" fill="none" xmlns="http://www.w3.org/2000/svg">
<g clip-path="url(#clip0_1592_11492)">
<path d="M12 24C18.6274 24 24 18.6274 24 12C24 5.37258 18.6274 0 12 0C5.37258 0 0 5.37258 0 12C0 18.6274 5.37258 24 12 24Z" fill="#FFFAE7"/>
<path fill-rule="evenodd" clip-rule="evenodd" d="M11.9727 6.011C11.9713 6.01388 11.9695 6.01771 11.9676 6.02262L11.9665 6.0253L10.3172 10.1239L6.06317 10.5143C6.04888 10.5169 6.03826 10.5196 6.03082 10.5217C6.02444 10.5314 6.01596 10.5473 6.00701 10.5731C5.9994 10.595 5.99778 10.6118 6.00312 10.6381C6.00305 10.638 6.00317 10.6382 6.00312 10.6381C6.00421 10.64 6.01003 10.6495 6.02586 10.665L9.2396 13.5722L8.27791 17.8976C8.27788 17.8977 8.27794 17.8974 8.27791 17.8976C8.27537 17.9091 8.27416 17.9179 8.27367 17.9233C8.28904 17.9538 8.30574 17.9749 8.32401 17.9917L12 15.673L15.676 17.9917C15.6943 17.9749 15.711 17.9538 15.7263 17.9233C15.7258 17.9179 15.7247 17.9096 15.7222 17.898C15.7222 17.8978 15.7222 17.8981 15.7222 17.898L14.7604 13.5722L17.9741 10.665C17.99 10.6495 17.9956 10.6403 17.9967 10.6384C17.9966 10.6385 17.9968 10.6383 17.9967 10.6384C18.002 10.6122 18.0006 10.595 17.993 10.5731C17.984 10.5473 17.9755 10.5314 17.9692 10.5217C17.9617 10.5196 17.9511 10.5169 17.9368 10.5143L13.6828 10.1239L12.0324 6.02262C12.0305 6.01771 12.0287 6.01388 12.0273 6.011C12.0149 6.00436 12.0071 6.00177 12.004 6.00085C12.0018 6.00022 12.0008 6.00007 12.0006 6.00004H11.9994C11.9992 6.00007 11.9982 6.00022 11.996 6.00085C11.9929 6.00177 11.9851 6.00436 11.9727 6.011ZM11.1911 4.73024C11.4321 4.58609 11.705 4.5 12 4.5C12.295 4.5 12.5679 4.58609 12.8089 4.73024C13.1026 4.90597 13.3056 5.16597 13.4255 5.4664C13.4257 5.46694 13.4259 5.46748 13.4261 5.46802L14.7323 8.71393L18.1211 9.02487L18.1423 9.02803C18.4295 9.07099 18.7273 9.17866 18.9716 9.40253C19.1793 9.5928 19.3217 9.82691 19.41 10.081C19.5074 10.3615 19.5255 10.6541 19.4654 10.9438C19.3977 11.27 19.2287 11.5439 18.999 11.7603L18.9935 11.7655L16.4141 14.0989L17.1869 17.5747C17.2557 17.8867 17.2407 18.2173 17.0978 18.5316C16.9862 18.777 16.8244 18.9915 16.6128 19.1639C16.3734 19.3588 16.0918 19.4683 15.7904 19.4946C15.4501 19.5243 15.1346 19.4308 14.865 19.2537L12 17.4465L9.13498 19.2537C8.86536 19.4308 8.54992 19.5243 8.20957 19.4946C7.90823 19.4683 7.62656 19.3588 7.38724 19.1639C7.17563 18.9915 7.01376 18.777 6.90219 18.5316C6.75925 18.2173 6.7443 17.8867 6.81306 17.5747L6.81336 17.5734L7.58587 14.0989L5.00652 11.7655L5.00096 11.7603C4.77132 11.5439 4.60234 11.27 4.53461 10.9438C4.47445 10.6541 4.49259 10.3615 4.59002 10.081C4.67825 9.82691 4.82071 9.5928 5.02839 9.40253C5.27273 9.17866 5.5705 9.07099 5.85771 9.02803L5.87885 9.02487L9.2677 8.71393L10.5739 5.46802C10.5741 5.46751 10.5743 5.467 10.5745 5.4665C10.6944 5.16603 10.8974 4.90599 11.1911 4.73024Z" fill="#FFE381"/>
</g>
<defs>
<clipPath id="clip0_1592_11492">
<rect width="24" height="24" fill="white"/>
</clipPath>
</defs>
</svg>
