<svg width="33" height="32" viewBox="0 0 33 32" fill="none" xmlns="http://www.w3.org/2000/svg">
<g clip-path="url(#clip0_366_1345)">
<path d="M16.5 32C25.3366 32 32.5 24.8366 32.5 16C32.5 7.16344 25.3366 0 16.5 0C7.66344 0 0.5 7.16344 0.5 16C0.5 24.8366 7.66344 32 16.5 32Z" fill="#B7CBF2"/>
<path fill-rule="evenodd" clip-rule="evenodd" d="M23.3932 11.4998L19.7266 7.9165C19.5599 7.74984 19.3932 7.6665 19.1432 7.6665H11.8932C10.8932 7.6665 9.97656 8.49984 9.97656 9.49984V22.8332C9.97656 23.8332 10.8099 24.6665 11.8932 24.6665H21.8099C22.8099 24.6665 23.7266 23.8332 23.7266 22.8332V11.9998C23.6432 11.8332 23.5599 11.5832 23.3932 11.4998ZM20.0599 10.3332L21.6432 11.8332H20.3932C20.2266 11.8332 20.0599 11.6665 20.0599 11.4998V10.3332ZM22.0599 22.8332C22.0599 22.9998 21.8932 23.1665 21.7266 23.1665H11.8932C11.7266 23.1665 11.5599 22.9998 11.5599 22.8332V9.49984C11.5599 9.33317 11.7266 9.1665 11.8932 9.1665H18.4766V11.4998C18.4766 12.4998 19.3099 13.3332 20.3932 13.3332H22.1432V22.8332H22.0599Z" fill="white"/>
<path fill-rule="evenodd" clip-rule="evenodd" d="M20.9766 16.9998C20.9766 17.4165 20.6432 17.8332 20.1432 17.8332H13.4766C13.0599 17.8332 12.6432 17.4998 12.6432 16.9998C12.6432 16.4998 12.9766 16.1665 13.4766 16.1665H20.1432C20.5599 16.2498 20.9766 16.5832 20.9766 16.9998Z" fill="white"/>
<path fill-rule="evenodd" clip-rule="evenodd" d="M20.1432 19.7498C20.1432 20.1665 19.8099 20.5832 19.3099 20.5832H14.3099C13.8932 20.5832 13.4766 20.2498 13.4766 19.7498C13.4766 19.2498 13.8099 18.9165 14.3099 18.9165H19.3099C19.7266 18.9165 20.1432 19.2498 20.1432 19.7498Z" fill="white"/>
</g>
<defs>
<clipPath id="clip0_366_1345">
<rect width="32" height="32" fill="white" transform="translate(0.5)"/>
</clipPath>
</defs>
</svg>
