<svg width="32" height="32" viewBox="0 0 32 32" fill="none" xmlns="http://www.w3.org/2000/svg">
<g clip-path="url(#clip0_541_2094)">
<path d="M16 32C24.8366 32 32 24.8366 32 16C32 7.16344 24.8366 0 16 0C7.16344 0 0 7.16344 0 16C0 24.8366 7.16344 32 16 32Z" fill="#B7CBF2"/>
<path d="M19.4572 16.0002H12.5436C12.0251 16.0002 11.6794 16.3558 11.6794 16.8891C11.6794 17.4224 12.0251 17.778 12.5436 17.778H19.4572C19.9757 17.778 20.3214 17.4224 20.3214 16.8891C20.3214 16.3558 19.9757 16.0002 19.4572 16.0002Z" fill="white"/>
<path d="M23.2597 9.42244C22.914 9.06688 22.4819 8.88911 22.0498 8.88911H21.1856V8.00022C21.1856 7.46688 20.8399 7.11133 20.3214 7.11133C19.8029 7.11133 19.4572 7.46688 19.4572 8.00022V8.88911H12.5436V8.00022C12.5436 7.46688 12.198 7.11133 11.6794 7.11133C11.1609 7.11133 10.8152 7.46688 10.8152 8.00022V8.88911H9.95105C9.51895 8.88911 9.08685 9.06688 8.74117 9.42244C8.3955 9.77799 8.22266 10.2224 8.22266 10.6669V23.1113C8.22266 23.5558 8.3955 24.0002 8.74117 24.3558C9.08685 24.7113 9.51895 24.8891 9.95105 24.8891H22.0498C22.4819 24.8891 22.914 24.7113 23.2597 24.3558C23.6054 24.0002 23.7782 23.5558 23.7782 23.1113V10.6669C23.7782 10.2224 23.6054 9.77799 23.2597 9.42244ZM22.0498 22.578C22.0498 22.8447 21.7906 23.1113 21.5313 23.1113H10.4696C10.2103 23.1113 9.95105 22.8447 9.95105 22.578V14.6669C9.95105 14.4891 10.2103 14.2224 10.4696 14.2224H21.6177C21.877 14.2224 22.1362 14.4891 22.1362 14.7558V22.578H22.0498ZM22.0498 12.178C22.0498 12.3558 21.9634 12.4447 21.7906 12.4447H10.2103C10.0375 12.4447 9.95105 12.3558 9.95105 12.178V10.9336C9.95105 10.7558 10.0375 10.6669 10.2103 10.6669H21.7906C21.9634 10.6669 22.0498 10.7558 22.0498 10.9336V12.178Z" fill="white"/>
<path d="M16.8646 19.5558H12.5436C12.0251 19.5558 11.6794 19.9113 11.6794 20.4447C11.6794 20.978 12.0251 21.3336 12.5436 21.3336H16.8646C17.3832 21.3336 17.7288 20.978 17.7288 20.4447C17.7288 19.9113 17.3832 19.5558 16.8646 19.5558Z" fill="white"/>
</g>
<defs>
<clipPath id="clip0_541_2094">
<rect width="32" height="32" fill="white"/>
</clipPath>
</defs>
</svg>
