<svg width="32" height="32" viewBox="0 0 32 32" fill="none" xmlns="http://www.w3.org/2000/svg">
<g clip-path="url(#clip0_366_1388)">
<path d="M16 32C24.8366 32 32 24.8366 32 16C32 7.16344 24.8366 0 16 0C7.16344 0 0 7.16344 0 16C0 24.8366 7.16344 32 16 32Z" fill="#E7CBF1"/>
<path fill-rule="evenodd" clip-rule="evenodd" d="M22.8932 11.4998L19.2266 7.9165C19.0599 7.74984 18.8932 7.6665 18.6432 7.6665H11.3932C10.3932 7.6665 9.47656 8.49984 9.47656 9.49984V22.8332C9.47656 23.8332 10.3099 24.6665 11.3932 24.6665H21.3099C22.3099 24.6665 23.2266 23.8332 23.2266 22.8332V11.9998C23.1432 11.8332 23.0599 11.5832 22.8932 11.4998ZM19.5599 10.3332L21.1432 11.8332H19.8932C19.7266 11.8332 19.5599 11.6665 19.5599 11.4998V10.3332ZM21.5599 22.8332C21.5599 22.9998 21.3932 23.1665 21.2266 23.1665H11.3932C11.2266 23.1665 11.0599 22.9998 11.0599 22.8332V9.49984C11.0599 9.33317 11.2266 9.1665 11.3932 9.1665H17.9766V11.4998C17.9766 12.4998 18.8099 13.3332 19.8932 13.3332H21.6432V22.8332H21.5599Z" fill="white"/>
<path fill-rule="evenodd" clip-rule="evenodd" d="M20.4766 16.9998C20.4766 17.4165 20.1432 17.8332 19.6432 17.8332H12.9766C12.5599 17.8332 12.1432 17.4998 12.1432 16.9998C12.1432 16.4998 12.4766 16.1665 12.9766 16.1665H19.6432C20.0599 16.2498 20.4766 16.5832 20.4766 16.9998Z" fill="white"/>
<path fill-rule="evenodd" clip-rule="evenodd" d="M19.6432 19.7498C19.6432 20.1665 19.3099 20.5832 18.8099 20.5832H13.8099C13.3932 20.5832 12.9766 20.2498 12.9766 19.7498C12.9766 19.2498 13.3099 18.9165 13.8099 18.9165H18.8099C19.2266 18.9165 19.6432 19.2498 19.6432 19.7498Z" fill="white"/>
</g>
<defs>
<clipPath id="clip0_366_1388">
<rect width="32" height="32" fill="white"/>
</clipPath>
</defs>
</svg>
