<svg width="33" height="32" viewBox="0 0 33 32" fill="none" xmlns="http://www.w3.org/2000/svg">
<g clip-path="url(#clip0_541_2106)">
<path d="M16.5 32C25.3366 32 32.5 24.8366 32.5 16C32.5 7.16344 25.3366 0 16.5 0C7.66344 0 0.5 7.16344 0.5 16C0.5 24.8366 7.66344 32 16.5 32Z" fill="#E7CBF1"/>
<path d="M22.1353 23.3051C22.1353 23.7553 21.7601 24.0555 21.3849 24.0555H9.37856C8.92833 24.0555 8.62817 23.9054 8.25297 23.6053C7.95281 23.3051 7.80273 22.9299 7.80273 22.4797V13.4749C7.80273 13.0247 8.17793 12.7245 8.55313 12.7245C8.92833 12.7245 9.30352 13.0997 9.30352 13.4749V21.7293C9.30352 22.1045 9.60368 22.4797 10.0539 22.4797H21.3098C21.7601 22.5547 22.1353 22.8549 22.1353 23.3051Z" fill="white"/>
<path d="M25.1369 10.3983C24.6866 9.94808 24.1613 9.72296 23.561 9.72296H18.6084L17.4078 8.52233C17.2577 8.37225 17.0326 8.22217 16.7324 8.22217H13.0555C12.4552 8.22217 11.9299 8.44729 11.4797 8.89752C11.0294 9.34776 10.8043 9.87304 10.8043 10.4734V18.7277C10.8043 19.328 11.0294 19.8533 11.4797 20.3035C11.9299 20.7538 12.4552 20.9789 13.0555 20.9789H23.561C24.1613 20.9789 24.6866 20.7538 25.1369 20.3035C25.5871 19.8533 25.8122 19.328 25.8122 18.7277V11.9741C25.8122 11.3738 25.5871 10.8486 25.1369 10.3983ZM24.3114 18.7277C24.3114 18.9528 24.2364 19.1029 24.0863 19.253C23.9362 19.4031 23.7861 19.4781 23.561 19.4781H13.0555C12.8304 19.4781 12.6803 19.4031 12.5302 19.253C12.3801 19.1029 12.3051 18.9528 12.3051 18.7277V10.4734C12.3051 10.2482 12.3801 10.0982 12.5302 9.94808C12.6803 9.798 12.8304 9.72296 13.0555 9.72296H16.5073L17.7079 10.9236C17.858 11.0737 18.0831 11.2237 18.3833 11.2237H23.561C23.7861 11.2237 23.9362 11.2988 24.0863 11.4489C24.2364 11.5989 24.3114 11.749 24.3114 11.9741V18.7277Z" fill="white"/>
<path d="M22.4354 16.4765L20.3343 13.0997C20.1092 12.8746 19.8091 12.7245 19.4339 12.7245C19.1337 12.7245 18.8335 12.8746 18.6084 13.1748L17.7079 14.3754L17.4078 13.9252C17.2577 13.625 16.9576 13.4749 16.6574 13.4749C16.2822 13.4749 15.982 13.7001 15.832 13.9252L14.2561 16.4015C14.031 16.7016 13.956 17.0768 14.1061 17.377C14.2561 17.7522 14.6313 17.9773 15.0065 17.9773H21.535C21.9102 17.9773 22.2103 17.8272 22.3604 17.5271C22.5855 17.2269 22.5855 16.8517 22.4354 16.4765ZM15.982 16.4765L16.6574 15.3509L16.9576 15.7261C17.3327 16.2514 18.2332 16.2514 18.6084 15.7261L19.5089 14.6005L20.7095 16.4765H15.982Z" fill="white"/>
</g>
<defs>
<clipPath id="clip0_541_2106">
<rect width="32" height="32" fill="white" transform="translate(0.5)"/>
</clipPath>
</defs>
</svg>
