<svg width="32" height="32" viewBox="0 0 32 32" fill="none" xmlns="http://www.w3.org/2000/svg">
<g clip-path="url(#clip0_366_1354)">
<path d="M16 32C24.8366 32 32 24.8366 32 16C32 7.16344 24.8366 0 16 0C7.16344 0 0 7.16344 0 16C0 24.8366 7.16344 32 16 32Z" fill="#E3D9AF"/>
<path fill-rule="evenodd" clip-rule="evenodd" d="M12.627 11.5207C12.627 11.0221 13.0467 10.6179 13.5645 10.6179H22.7051C23.2228 10.6179 23.6426 11.0221 23.6426 11.5207C23.6426 12.0193 23.2228 12.4234 22.7051 12.4234H13.5645C13.0467 12.4234 12.627 12.0193 12.627 11.5207Z" fill="white"/>
<path fill-rule="evenodd" clip-rule="evenodd" d="M12.627 15.5832C12.627 15.0846 13.0467 14.6804 13.5645 14.6804H22.7051C23.2228 14.6804 23.6426 15.0846 23.6426 15.5832C23.6426 16.0818 23.2228 16.4859 22.7051 16.4859H13.5645C13.0467 16.4859 12.627 16.0818 12.627 15.5832Z" fill="white"/>
<path fill-rule="evenodd" clip-rule="evenodd" d="M12.627 19.6457C12.627 19.1471 13.0467 18.7429 13.5645 18.7429H22.7051C23.2228 18.7429 23.6426 19.1471 23.6426 19.6457C23.6426 20.1443 23.2228 20.5484 22.7051 20.5484H13.5645C13.0467 20.5484 12.627 20.1443 12.627 19.6457Z" fill="white"/>
<path fill-rule="evenodd" clip-rule="evenodd" d="M8.64258 11.5207C8.64258 10.7728 9.27218 10.1665 10.0488 10.1665H10.0559C10.8325 10.1665 11.4621 10.7728 11.4621 11.5207C11.4621 12.2686 10.8325 12.8748 10.0559 12.8748H10.0488C9.27218 12.8748 8.64258 12.2686 8.64258 11.5207Z" fill="white"/>
<path fill-rule="evenodd" clip-rule="evenodd" d="M8.64258 15.5832C8.64258 14.8353 9.27218 14.229 10.0488 14.229H10.0559C10.8325 14.229 11.4621 14.8353 11.4621 15.5832C11.4621 16.3311 10.8325 16.9373 10.0559 16.9373H10.0488C9.27218 16.9373 8.64258 16.3311 8.64258 15.5832Z" fill="white"/>
<path fill-rule="evenodd" clip-rule="evenodd" d="M8.64258 19.6457C8.64258 18.8978 9.27218 18.2915 10.0488 18.2915H10.0559C10.8325 18.2915 11.4621 18.8978 11.4621 19.6457C11.4621 20.3936 10.8325 20.9998 10.0559 20.9998H10.0488C9.27218 20.9998 8.64258 20.3936 8.64258 19.6457Z" fill="white"/>
</g>
<defs>
<clipPath id="clip0_366_1354">
<rect width="32" height="32" fill="white"/>
</clipPath>
</defs>
</svg>
