<svg width="33" height="32" viewBox="0 0 33 32" fill="none" xmlns="http://www.w3.org/2000/svg">
<g clip-path="url(#clip0_366_1393)">
<path d="M16.5 32C25.3366 32 32.5 24.8366 32.5 16C32.5 7.16344 25.3366 0 16.5 0C7.66344 0 0.5 7.16344 0.5 16C0.5 24.8366 7.66344 32 16.5 32Z" fill="#CBE6C5"/>
<path d="M21.6805 23.2813C20.6584 23.2813 19.4902 22.4052 19.4902 22.4052C19.4902 22.4052 19.3442 22.3322 19.1252 22.1862C18.2491 21.6021 16.3509 20.3609 15.5478 19.7039C15.1828 19.4118 14.9637 18.9738 14.9637 18.5357C14.9637 18.2437 15.0367 17.8057 15.5478 17.3676C15.9128 17.0026 16.3509 16.6375 16.7159 16.2725L14.0146 18.0977C13.8686 18.1707 13.0655 18.6818 11.6054 18.2437C10.4372 17.8787 9.12308 17.4406 9.05007 17.4406L8.90406 17.3676C8.61203 17.1486 8.24698 16.7835 8.31999 16.1995C8.393 15.3234 9.34211 14.9583 9.70715 14.8123L18.7602 11.0889C19.6363 10.7239 22.7026 9.48272 22.7026 9.48272C22.9216 9.40971 23.7977 9.11768 24.4548 9.62874C24.7468 9.84776 25.0389 10.2858 24.9659 11.0159C24.9659 11.4539 24.7468 12.4761 24.5278 13.9362L24.3088 15.4694L23.3597 21.6021C23.2867 22.1131 22.9946 23.0622 22.0455 23.2813C21.8995 23.2813 21.8265 23.2813 21.6805 23.2813ZM16.4239 18.4627C16.4239 18.5357 16.4239 18.5357 16.4239 18.4627C17.227 19.1198 19.1252 20.3609 19.9283 20.872C20.2203 21.018 20.3663 21.164 20.3663 21.164C20.6584 21.3831 21.4615 21.8211 21.6805 21.7481C21.7535 21.7481 21.8265 21.5291 21.8265 21.3101L23.0677 13.4982C23.2867 12.184 23.4327 11.0889 23.4327 10.7239C23.4327 10.6509 23.4327 10.6509 23.4327 10.6509C23.3597 10.6509 23.2137 10.6509 23.1407 10.7239C23.1407 10.7239 20.1473 11.965 19.1982 12.33L10.2182 16.1265C10.2182 16.1265 10.1452 16.1265 10.1452 16.1995C10.6563 16.3455 11.3863 16.6375 12.0434 16.7835C12.8465 17.0026 13.2115 16.7835 13.2846 16.7835L18.7602 13.1331C19.4172 12.6951 20.5124 11.965 21.0964 12.6951C21.6075 13.2791 21.0234 14.0822 20.6584 14.5203C19.6363 15.5424 17.9571 17.1486 16.5699 18.4627C16.4969 18.4627 16.4239 18.4627 16.4239 18.4627Z" fill="white"/>
</g>
<defs>
<clipPath id="clip0_366_1393">
<rect width="32" height="32" fill="white" transform="translate(0.5)"/>
</clipPath>
</defs>
</svg>
