<svg width="119" height="80" viewBox="0 0 119 80" fill="none" xmlns="http://www.w3.org/2000/svg">
<g id="logo MM">
<path id="Vector" fill-rule="evenodd" clip-rule="evenodd" d="M100.405 66.5431C110.796 59.5576 116.905 50.1333 116.905 40.0001C116.905 29.8669 110.796 20.4426 100.405 13.4571C90.0273 6.48049 75.5718 2.09738 59.5 2.09738C43.4284 2.09738 28.9724 6.48049 18.5948 13.4571C8.20395 20.4426 2.09476 29.8669 2.09476 40.0001C2.09476 50.1333 8.20395 59.5576 18.5948 66.5431C28.9724 73.5194 43.4284 77.9028 59.5 77.9028C75.5718 77.9028 90.0273 73.5194 100.405 66.5431ZM59.5 80C92.3612 80 119 62.0915 119 40.0001C119 17.9087 92.3612 0 59.5 0C26.6391 0 0 17.9087 0 40.0001C0 62.0915 26.6391 80 59.5 80Z" fill="black"/>
<path id="Vector_2" d="M85.4365 38.2609H74.8281V29.8898L65.1167 38.2609H53.8845L44.1733 29.9304V38.2609H33.5645V15.0261H43.627L59.4613 29.8492L75.3736 15.0261H85.4365V38.2609ZM76.7778 36.2194H83.4861V17.0675H76.1929L59.4613 32.7887L42.8076 17.0675H35.5143V36.2189H42.2224V24.9077L54.7029 36.2189H64.2973L76.7778 24.8672V36.2189V36.2194Z" fill="black"/>
<path id="Vector_3" d="M76.4396 40.6262L59.4598 58.1614L42.5612 40.6262H33.5645V63.7219H42.5612V51.9098L54.1105 63.7219H64.9306L76.4803 51.8693V63.7219H85.4365V40.6262H76.4396Z" fill="black"/>
</g>
</svg>
