<svg width="56" height="57" viewBox="0 0 56 57" fill="none" xmlns="http://www.w3.org/2000/svg">
<path d="M4.76001 28.5013C4.76001 15.6143 15.204 5.16797 28.0933 5.16797C40.978 5.16797 51.4267 15.6143 51.4267 28.5013C51.4267 41.3883 40.978 51.8346 28.0933 51.8346C15.204 51.8346 4.76001 41.3883 4.76001 28.5013Z" fill="#BA58A1"/>
<g clip-path="url(#clip0_2427_46722)">
<path d="M16.7146 22.167L21.6963 23.9535V30.5583H34.3037V23.8208L36.7946 23.0449V26.8527H38.7546V22.3405L39.3058 22.1568C39.6835 22.0649 39.9796 21.6668 39.9796 21.2891C39.9796 20.9114 39.6835 20.5132 39.3058 20.4214H39.2956L28.2705 16.5728H28.2603C28.097 16.4809 27.9234 16.4707 27.5866 16.5728L16.684 20.2989H16.6738C16.296 20.4009 16 20.7889 16 21.1666C16 21.5443 16.2858 21.9526 16.7146 22.167ZM32.3335 28.5983H23.6563V24.5149L27.9745 26.087C27.9745 26.087 28.0561 26.0564 28.1072 26.036C28.2297 25.985 28.393 25.9237 28.5768 25.8625C28.9545 25.7297 29.4547 25.5562 29.9447 25.3827C30.9349 25.0458 31.8945 24.6783 31.9762 24.6476L32.3233 24.5149V28.6085L32.3335 28.5983ZM27.9949 18.4205L36.0698 21.2993L27.9949 24.0351L22.4517 22.1466L19.9507 21.1462L27.9949 18.4205Z" fill="white"/>
<path d="M39.9898 34.407C39.9898 34.0905 39.8877 33.8557 39.7244 33.6924C39.561 33.5291 39.316 33.427 39.0098 33.427H19.4607C17.6129 33.427 16 34.9276 16 36.8876C16 38.8477 17.4904 40.3483 19.4607 40.3483H39.0098C39.4998 40.3483 39.9898 39.9502 39.9898 39.3683C39.9898 38.7864 39.4998 38.3883 39.0098 38.3883C38.2646 38.3883 37.5194 37.7962 37.5194 36.8978C37.5194 36.4691 37.6623 36.0914 37.9379 35.8158C38.2135 35.5401 38.5912 35.3972 39.02 35.3972C39.51 35.3972 40 34.9991 40 34.4172L39.9898 34.407ZM35.7839 38.0412L35.8962 38.3781H19.4607C18.7154 38.3781 17.9702 37.786 17.9702 36.8876C17.9702 36.4589 18.1131 36.0812 18.3888 35.8055C18.6644 35.5299 19.0421 35.387 19.4709 35.387H35.9064L35.7941 35.7239C35.6716 36.0914 35.5593 36.4283 35.5593 36.8774C35.5593 37.2041 35.6716 37.6737 35.7941 38.031L35.7839 38.0412Z" fill="white"/>
</g>
<defs>
<clipPath id="clip0_2427_46722">
<rect width="24" height="24" fill="white" transform="translate(16 16.5)"/>
</clipPath>
</defs>
</svg>
